<svg class="img-fluid" id="outputsvg" xmlns="http://www.w3.org/2000/svg"  width="346" height="810" viewBox="0 0 3460 8100"><g id="l6yu3HgykpGELajDrzV86ep" fill="rgb(223,200,86)" style="transform: none;"><g style="transform: none;"><path id="pADIr3x6j" d="M2408 7908 c-41 -20 -70 -52 -97 -103 -21 -42 -42 -150 -34 -172 3 -7 1 -19 -5 -26 -6 -7 -12 -24 -14 -37 -2 -14 -6 -29 -10 -35 -3 -5 -11 -29 -17 -52 -10 -37 -51 -104 -137 -223 -22 -30 -25 -43 -22 -95 3 -52 11 -70 53 -133 45 -67 49 -78 46 -125 -1 -29 -9 -81 -18 -117 -8 -36 -16 -74 -18 -85 -3 -26 -43 -191 -55 -230 -19 -62 -53 -283 -46 -300 2 -7 0 -17 -4 -21 -5 -5 -10 -54 -10 -109 -2 -104 -16 -161 -88 -361 -30 -82 -47 -153 -45 -189 1 -11 -3 -39 -8 -62 -5 -23 -11 -95 -15 -160 -3 -66 -18 -182 -34 -263 -16 -80 -32 -165 -35 -190 -4 -25 -10 -65 -15 -90 -4 -25 -8 -52 -9 -60 -2 -31 -10 -86 -15 -110 -3 -14 -10 -44 -15 -68 -17 -82 -23 -68 -23 55 0 29 -3 55 -8 58 -4 3 -6 14 -3 25 3 11 1 20 -4 20 -5 0 -8 21 -7 48 0 26 -3 52 -8 59 -5 6 -11 60 -13 120 -4 134 -22 297 -36 340 -6 18 -12 90 -15 160 -2 70 -4 130 -5 133 -1 3 0 17 1 33 1 15 -3 27 -9 27 -6 0 -8 7 -5 15 4 8 1 15 -5 15 -6 0 -8 6 -5 13 2 7 -2 44 -11 82 -22 99 -23 103 -34 170 -10 63 -9 117 4 148 12 30 -2 213 -26 327 -11 58 -25 122 -29 142 -4 21 -13 44 -19 52 -7 8 -14 34 -17 57 -3 24 -9 46 -14 49 -4 3 -10 25 -13 50 -3 25 -11 88 -17 140 -7 52 -12 105 -12 117 0 21 35 77 92 144 40 46 46 93 17 133 -12 17 -25 33 -29 34 -4 2 -8 8 -8 13 0 6 -10 20 -21 32 -36 37 -79 110 -79 132 0 12 -3 25 -7 28 -3 4 -8 17 -9 30 -7 62 -24 127 -33 127 -4 0 -8 6 -8 13 0 8 -15 58 -33 113 -32 95 -69 154 -97 154 -7 0 -13 5 -13 11 0 15 -46 5 -106 -23 -52 -24 -131 -99 -146 -138 -5 -13 -14 -45 -19 -70 -9 -40 -7 -53 16 -105 15 -33 59 -102 98 -155 88 -117 101 -142 127 -255 29 -123 33 -209 14 -334 -9 -58 -20 -133 -25 -166 -14 -88 -20 -167 -25 -283 -2 -56 -8 -112 -14 -123 -6 -11 -8 -29 -5 -39 4 -11 3 -25 -2 -32 -9 -15 -10 -21 -23 -118 -6 -41 -10 -169 -10 -285 1 -216 0 -228 -26 -330 -21 -83 -41 -198 -49 -275 -3 -36 -12 -110 -20 -165 -17 -124 -27 -728 -14 -840 12 -102 13 -107 23 -123 4 -7 6 -25 5 -40 -1 -15 1 -34 5 -43 4 -8 8 -44 9 -80 1 -35 5 -66 8 -69 3 -3 13 -63 21 -135 17 -138 20 -154 30 -171 4 -6 7 -31 6 -56 0 -25 5 -55 12 -67 6 -12 9 -29 6 -37 -3 -8 -2 -14 3 -14 5 0 6 -18 4 -40 -3 -22 -1 -40 4 -40 9 0 9 -13 14 -380 1 -157 -1 -242 -8 -255 -20 -35 -28 -5 -65 228 -7 42 -15 77 -19 77 -10 0 -33 108 -30 143 1 15 -2 27 -7 27 -4 0 -9 17 -10 37 -2 21 -11 78 -22 128 -27 131 -30 146 -36 190 -3 22 -10 42 -15 43 -5 2 -6 8 -3 14 5 8 -11 65 -36 123 -5 11 -20 54 -33 95 -14 41 -55 138 -92 215 -37 77 -72 151 -78 165 -7 14 -14 27 -18 30 -18 16 -49 116 -49 157 0 64 -38 191 -61 204 -24 12 -32 -3 -36 -65 -5 -98 -16 -82 -74 110 -5 17 -9 65 -9 107 0 74 -13 105 -31 76 -14 -23 -50 -191 -51 -239 -2 -115 37 -258 83 -302 10 -10 21 -39 25 -65 3 -27 10 -52 14 -58 5 -5 11 -134 14 -285 5 -263 19 -430 36 -430 7 0 25 -69 20 -79 -1 -2 2 -7 7 -10 8 -6 47 -104 71 -181 6 -19 18 -75 26 -125 14 -86 19 -126 31 -259 4 -33 9 -64 12 -68 3 -5 5 -91 4 -191 0 -126 4 -197 14 -232 13 -48 30 -166 26 -174 -2 -2 2 -7 7 -10 5 -3 19 -37 31 -76 12 -38 34 -88 49 -110 32 -45 125 -115 155 -115 11 0 28 -6 36 -14 21 -18 268 -132 306 -142 17 -4 35 -10 40 -14 6 -5 37 -11 70 -15 33 -4 65 -11 71 -16 6 -5 12 -35 13 -67 2 -49 -4 -72 -34 -138 -20 -43 -50 -100 -67 -127 -24 -37 -29 -54 -24 -78 4 -21 -1 -46 -14 -76 -26 -58 -25 -94 1 -117 19 -16 20 -24 14 -99 -4 -45 -12 -99 -18 -120 -7 -27 -7 -41 1 -49 8 -8 7 -19 -4 -41 -15 -28 -14 -33 11 -88 33 -73 38 -101 22 -111 -9 -6 -6 -14 12 -28 13 -11 30 -20 37 -20 8 0 25 -6 37 -14 37 -24 148 -49 212 -49 53 1 194 39 212 57 4 3 16 6 27 6 12 0 40 9 62 19 48 22 101 94 149 201 27 60 30 75 30 185 1 78 5 128 14 144 8 15 10 36 6 60 -10 47 -14 76 -20 130 -6 45 -43 107 -71 118 -8 3 -14 10 -14 15 0 9 -39 97 -69 158 -7 12 -8 78 -2 127 0 6 28 14 61 18 33 4 63 11 66 16 3 5 21 9 41 9 19 0 49 6 66 14 18 8 73 31 122 51 134 55 190 82 237 114 42 29 118 101 116 111 0 3 9 25 20 50 27 61 42 138 43 218 0 37 7 103 16 147 8 44 17 146 20 228 2 81 7 147 11 147 4 0 7 107 7 238 1 191 4 251 18 307 28 112 38 159 38 180 1 24 28 164 36 185 3 8 7 39 9 69 1 31 8 57 16 62 10 7 10 9 -2 9 -11 0 -12 3 -3 8 6 4 11 21 11 37 0 17 5 50 13 75 15 54 14 51 21 70 9 23 32 104 34 115 0 6 4 19 8 30 5 11 12 31 17 45 5 14 8 42 7 63 -1 28 5 45 24 65 27 28 46 76 53 131 2 18 9 39 15 46 12 14 9 142 -4 215 -21 115 -29 140 -48 140 -16 0 -18 -9 -18 -72 -1 -86 -21 -187 -44 -223 -9 -14 -13 -25 -9 -25 5 0 0 -5 -10 -11 -26 -15 -38 -2 -31 36 14 74 -25 102 -52 38 -9 -21 -21 -47 -27 -58 -6 -11 -12 -69 -13 -130 -2 -91 -7 -122 -28 -179 -20 -53 -153 -303 -216 -406 -5 -8 -35 -69 -65 -135 -73 -157 -129 -358 -128 -455 1 -30 -1 -59 -5 -65 -4 -5 -7 -19 -9 -30 -15 -150 -26 -236 -35 -264 -10 -31 -12 -33 -23 -17 -26 35 -25 489 2 616 3 14 8 86 13 160 7 129 30 272 50 315 5 11 9 35 8 53 0 19 3 37 8 40 5 4 11 29 12 55 1 27 9 76 17 108 9 33 15 65 13 72 -1 7 3 41 10 77 19 105 21 140 8 140 -6 0 -4 5 4 10 9 6 10 10 3 10 -9 0 -12 109 -13 435 -1 415 -4 494 -20 505 -8 5 -22 82 -21 115 0 10 -4 24 -8 30 -4 5 -9 41 -9 79 -1 40 -7 73 -13 77 -8 5 -7 8 2 12 10 4 10 6 2 6 -7 1 -13 8 -13 16 0 8 6 15 13 15 9 0 9 2 -1 9 -10 6 -12 32 -9 107 6 125 13 179 23 195 4 7 9 29 11 49 2 19 7 36 11 38 7 2 8 361 1 525 -2 48 -7 87 -12 87 -5 0 -7 18 -3 40 3 22 2 40 -3 40 -4 0 -9 44 -10 97 -1 57 -5 100 -12 104 -18 10 0 212 20 232 6 6 11 28 11 48 0 26 11 53 35 89 19 29 35 55 35 58 0 3 11 20 25 38 14 18 25 37 25 43 0 6 4 11 9 11 5 0 16 15 25 33 9 17 31 55 49 82 30 45 33 59 36 133 l3 84 -37 33 c-20 19 -50 37 -66 40 -17 4 -33 13 -36 20 -7 19 -114 15 -155 -7z"></path></g></g></svg>
