<svg class="img-fluid" id="outputsvg" xmlns="http://www.w3.org/2000/svg"  width="352" height="812" viewBox="0 0 3520 8120"><g id="lYmmlbxwbsAoXTYEJlWmUG" fill="rgb(255,151,23)" style="transform: none;"><g><path id="pbZBtDPbU" d="M2392 7837 c-60 -60 -62 -65 -63 -115 -1 -29 -6 -55 -10 -58 -5 -3 -9 -24 -9 -47 0 -87 -68 -242 -146 -333 -34 -40 -46 -62 -48 -93 -5 -64 13 -152 40 -198 28 -48 30 -81 9 -140 -8 -23 -22 -81 -30 -130 -9 -48 -23 -108 -31 -133 -8 -25 -14 -59 -14 -75 0 -17 -6 -37 -12 -43 -10 -10 -13 -90 -13 -320 0 -266 -2 -312 -17 -342 -47 -98 -92 -224 -108 -300 -23 -107 -43 -267 -36 -278 3 -5 -1 -30 -9 -55 -8 -26 -15 -68 -16 -95 0 -26 -12 -103 -24 -172 -13 -69 -31 -186 -41 -260 -9 -74 -18 -142 -20 -150 -1 -8 -3 -27 -3 -42 -2 -46 -29 -34 -35 15 -3 23 -8 58 -12 77 -3 19 -10 139 -14 265 -4 127 -13 250 -19 275 -5 25 -10 137 -11 250 l0 205 -34 88 c-51 130 -80 258 -70 310 21 109 0 508 -30 556 -8 13 -19 67 -37 191 -6 41 -18 107 -26 146 -15 70 -15 71 13 145 18 49 29 100 31 151 l4 76 -53 64 c-79 92 -84 102 -108 223 -12 60 -34 134 -50 165 -15 30 -35 81 -44 113 -26 88 -42 100 -135 95 -75 -3 -76 -4 -120 -48 -23 -25 -56 -71 -72 -102 -24 -48 -28 -64 -23 -105 4 -26 12 -55 19 -63 7 -8 22 -34 34 -58 12 -24 37 -60 55 -80 87 -98 117 -165 133 -292 3 -25 10 -51 16 -58 19 -24 21 -158 3 -225 -9 -34 -18 -80 -20 -102 -1 -22 -6 -47 -9 -55 -9 -23 -19 -148 -17 -215 0 -33 -6 -103 -15 -155 -9 -52 -18 -108 -21 -125 -2 -16 -8 -163 -13 -325 -4 -162 -11 -304 -16 -315 -4 -11 -11 -29 -15 -40 -20 -46 -50 -174 -50 -213 0 -23 -4 -50 -9 -60 -12 -22 -27 -103 -41 -217 -6 -49 -14 -115 -18 -145 -12 -98 -8 -868 6 -965 17 -128 33 -275 42 -385 4 -52 12 -113 18 -135 6 -22 13 -74 17 -115 3 -41 13 -117 22 -168 8 -51 13 -112 11 -137 -2 -25 0 -46 3 -47 4 -2 4 -37 1 -78 l-5 -74 -12 41 c-7 23 -16 64 -19 90 -8 51 -83 360 -91 374 -3 4 -16 61 -29 126 -35 171 -110 393 -185 548 -97 199 -112 241 -120 337 -9 106 -23 138 -63 138 -22 0 -27 -5 -30 -27 -5 -48 -32 -39 -55 19 -12 29 -26 69 -31 88 -7 28 -13 36 -36 38 -46 6 -47 4 -31 -193 8 -89 24 -138 61 -176 34 -36 45 -136 44 -429 0 -295 14 -409 68 -530 8 -19 19 -73 23 -120 5 -47 13 -96 19 -110 15 -41 32 -167 39 -290 3 -63 9 -120 13 -125 3 -6 8 -35 9 -64 3 -54 29 -153 69 -265 12 -34 23 -95 27 -145 6 -100 42 -229 80 -283 29 -42 105 -92 210 -139 84 -37 112 -50 186 -84 32 -14 102 -39 155 -56 53 -16 103 -37 110 -46 11 -16 26 -62 33 -103 3 -18 -59 -149 -96 -204 -16 -23 -31 -64 -36 -99 -6 -33 -16 -72 -24 -88 -21 -40 -19 -58 10 -85 23 -21 24 -28 19 -86 -3 -34 -9 -67 -12 -73 -3 -5 -9 -57 -13 -115 -6 -99 -5 -108 17 -148 13 -23 24 -51 24 -62 0 -10 5 -22 10 -25 6 -3 10 -15 10 -26 0 -10 5 -19 10 -19 6 0 30 -9 52 -20 23 -11 56 -20 73 -20 18 0 54 -7 81 -15 68 -21 97 -19 161 10 30 14 81 32 112 39 117 28 155 59 210 170 34 69 36 76 43 221 4 83 10 168 14 189 6 36 -2 91 -27 188 -5 20 -21 51 -35 67 -14 17 -30 48 -36 68 -5 21 -19 56 -29 78 -18 37 -19 45 -7 104 9 45 19 67 33 75 11 6 23 14 26 19 3 4 34 12 70 19 35 6 87 21 114 33 28 13 79 35 115 50 150 61 230 107 278 160 44 49 88 137 97 195 2 14 11 72 19 130 8 58 20 129 25 159 6 29 11 137 11 238 0 101 5 217 11 256 12 81 45 213 59 240 17 30 38 147 44 252 13 208 17 251 26 275 5 14 11 59 14 100 2 41 12 113 20 159 9 46 19 109 22 140 10 94 41 225 62 262 30 49 52 147 52 223 l0 66 -35 0 c-29 0 -37 -5 -46 -27 -6 -15 -19 -43 -31 -61 -16 -26 -23 -30 -34 -21 -8 6 -14 20 -14 31 0 16 -6 19 -32 16 -28 -3 -33 -8 -40 -38 -4 -19 -7 -75 -7 -125 1 -49 -2 -103 -6 -120 -10 -37 -97 -213 -157 -315 -43 -75 -118 -247 -118 -273 0 -8 -7 -27 -15 -44 -8 -16 -16 -38 -18 -49 -2 -10 -7 -26 -10 -34 -10 -22 -26 -93 -49 -210 -11 -58 -26 -116 -33 -130 -18 -34 -45 -151 -46 -203 -2 -29 -3 -34 -6 -15 -2 15 1 85 7 155 6 70 15 184 21 253 5 69 11 136 13 150 3 14 12 70 20 125 18 116 49 298 70 405 44 231 60 509 36 630 -5 25 -12 124 -15 220 -4 96 -13 211 -21 256 -8 44 -14 109 -14 145 0 35 -7 88 -14 117 -8 29 -17 83 -21 120 -4 37 -17 125 -31 197 -30 162 -30 193 1 345 16 80 25 156 25 219 0 130 -18 412 -32 486 -6 33 -14 92 -18 130 -4 39 -13 105 -20 147 -11 63 -11 90 -1 150 23 129 39 171 101 258 33 47 65 96 71 110 5 13 28 50 50 82 38 56 39 61 39 140 0 102 -18 136 -89 173 -38 19 -66 25 -113 25 l-64 0 -62 -63z"></path></g></g><g id="lOqUxGGBYHMqNMBZSoMhlX" fill="rgb(255,161,37)" style="transform: none;"><g><path id="pWp5NPlye" d="M2397 7842 c-65 -66 -67 -69 -68 -120 -1 -29 -6 -55 -10 -58 -5 -3 -9 -24 -9 -47 0 -87 -68 -242 -146 -333 -36 -42 -45 -61 -48 -96 -3 -68 13 -149 40 -195 28 -48 30 -81 9 -140 -8 -23 -22 -81 -30 -130 -9 -48 -23 -108 -31 -133 -8 -25 -14 -59 -14 -75 0 -17 -6 -37 -12 -44 -10 -9 -13 -87 -13 -319 -1 -264 -3 -312 -17 -342 -47 -99 -92 -223 -105 -285 -7 -38 -18 -81 -23 -95 -5 -14 -12 -72 -14 -130 -3 -58 -10 -120 -15 -139 -6 -18 -11 -54 -12 -80 0 -25 -11 -102 -24 -171 -23 -122 -52 -326 -60 -425 -3 -39 -1 -33 11 25 8 41 25 125 39 185 32 145 52 266 65 395 6 58 15 124 21 147 5 23 12 81 15 130 6 83 37 226 54 248 4 6 19 39 33 75 51 126 58 182 63 489 3 222 8 298 20 341 37 126 75 309 77 365 1 47 -5 77 -31 139 -20 50 -32 96 -32 125 0 43 6 55 56 117 30 38 69 95 85 128 35 68 69 191 69 251 0 58 17 102 58 153 63 77 118 90 203 47 64 -33 89 -73 89 -145 0 -65 -4 -74 -133 -266 -74 -110 -100 -158 -108 -197 -6 -29 -15 -71 -20 -94 -13 -62 -11 -168 6 -248 8 -38 15 -86 15 -105 0 -19 7 -71 15 -115 15 -83 36 -361 35 -475 0 -62 -16 -170 -39 -270 -16 -70 -13 -188 8 -296 20 -100 25 -133 36 -234 3 -30 12 -80 20 -110 8 -30 15 -84 15 -119 0 -36 6 -101 14 -145 8 -45 17 -160 21 -256 3 -96 10 -195 15 -220 13 -63 12 -272 -1 -350 -10 -62 -33 -211 -44 -295 -3 -22 -15 -83 -26 -135 -31 -149 -60 -354 -69 -480 -5 -63 -13 -167 -18 -230 -15 -169 -19 -414 -7 -418 6 -2 14 11 19 30 4 18 15 53 23 78 8 25 19 74 23 110 49 373 165 735 323 1005 43 73 54 95 105 207 29 64 30 71 26 173 -3 59 -2 116 2 128 6 19 8 17 18 -13 21 -65 77 -42 111 46 9 24 23 44 31 44 31 0 6 -144 -42 -244 -15 -31 -30 -90 -39 -151 -8 -55 -25 -165 -40 -244 -14 -80 -25 -165 -25 -190 0 -25 -6 -80 -14 -121 -8 -41 -17 -127 -21 -190 -6 -120 -29 -265 -44 -284 -10 -13 -43 -120 -48 -156 -2 -14 -8 -54 -14 -90 -7 -36 -11 -146 -10 -245 1 -127 -3 -204 -14 -260 -8 -44 -15 -103 -15 -131 0 -59 -39 -201 -76 -280 -14 -29 -41 -67 -60 -84 -72 -63 -457 -230 -531 -230 -30 0 -92 -59 -94 -89 -1 -12 -2 -24 -3 -28 -17 -70 -17 -74 7 -125 13 -29 30 -71 37 -93 7 -22 23 -53 36 -68 13 -15 28 -45 33 -65 29 -115 33 -142 22 -174 -6 -18 -12 -91 -13 -163 -1 -72 -5 -137 -9 -145 -4 -8 -18 -40 -33 -72 -47 -102 -83 -132 -196 -162 -30 -8 -82 -24 -115 -35 -33 -12 -66 -18 -75 -15 -23 11 -39 14 -125 24 -112 13 -125 18 -125 46 0 13 -14 43 -30 67 -17 23 -31 52 -32 62 -3 50 15 302 23 323 15 40 10 62 -16 74 -29 13 -31 27 -9 70 9 17 18 53 20 80 4 36 14 61 39 94 19 25 38 58 42 72 3 15 15 44 26 65 16 31 19 50 13 98 -10 99 -56 159 -121 159 -31 0 -76 16 -180 65 -27 12 -95 42 -149 65 -105 45 -216 106 -216 119 0 4 -9 16 -19 28 -38 40 -62 104 -72 191 -6 48 -21 128 -34 177 -54 203 -84 387 -84 506 0 89 -4 126 -20 169 -11 31 -25 96 -31 145 -15 120 -29 182 -52 227 -38 77 -48 176 -48 488 0 326 -9 391 -65 464 -48 62 -84 261 -56 305 10 16 16 7 26 -39 10 -48 51 -126 70 -133 24 -10 42 2 55 34 l13 30 15 -22 c9 -13 18 -58 23 -108 7 -89 48 -205 114 -331 62 -117 157 -397 191 -563 13 -65 26 -122 29 -126 7 -13 82 -321 90 -371 8 -52 73 -259 88 -277 34 -45 33 40 -6 352 l-12 100 -5 -60 c-3 -33 -2 -62 1 -65 4 -3 4 -39 1 -80 l-5 -74 -13 43 c-7 23 -15 66 -19 94 -4 29 -15 86 -25 127 -24 97 -58 248 -64 280 -14 78 -47 214 -66 275 -36 114 -78 213 -205 480 -44 92 -48 109 -56 204 -7 100 -37 205 -63 223 -27 19 -35 6 -38 -59 -2 -53 -6 -68 -19 -71 -27 -5 -69 144 -69 246 0 66 -3 82 -15 82 -49 0 -69 -141 -50 -346 8 -89 25 -137 61 -175 34 -36 45 -136 44 -429 0 -295 14 -409 68 -530 8 -19 19 -73 23 -120 5 -47 13 -96 19 -110 11 -29 26 -151 36 -295 3 -55 10 -107 14 -115 5 -9 10 -40 11 -69 3 -54 29 -153 69 -265 12 -34 23 -95 27 -145 6 -100 42 -229 80 -283 29 -42 105 -92 210 -139 76 -34 104 -46 183 -82 55 -25 180 -68 232 -81 31 -7 46 -30 63 -95 11 -44 10 -48 -38 -140 -27 -53 -55 -103 -63 -112 -8 -9 -19 -45 -25 -79 -5 -34 -16 -75 -24 -91 -21 -40 -19 -58 10 -85 23 -21 24 -28 19 -86 -3 -34 -10 -70 -15 -80 -5 -9 -9 -38 -10 -65 0 -26 -4 -66 -8 -88 -6 -34 -3 -48 21 -93 31 -59 36 -92 13 -92 -33 0 -12 -22 42 -46 32 -14 67 -29 78 -33 40 -18 111 -34 171 -38 51 -4 71 0 119 22 31 14 83 32 114 39 121 29 153 57 220 189 l46 92 0 135 c-1 105 2 137 14 146 9 7 12 20 8 40 -4 16 -12 58 -18 94 -13 76 -31 115 -70 152 -16 15 -29 37 -29 48 0 12 -7 46 -15 75 -22 75 -17 174 10 189 11 6 23 14 26 19 3 4 34 12 70 19 35 6 87 21 114 33 28 13 79 35 115 50 133 54 216 100 261 142 48 45 110 155 114 202 1 14 4 42 8 61 3 19 11 73 18 120 7 47 16 87 20 90 4 3 10 118 13 255 3 138 7 261 10 275 19 105 29 146 37 155 5 5 9 21 9 35 0 15 7 40 14 56 32 63 46 151 52 323 3 97 10 184 15 193 5 9 9 44 9 77 0 33 5 72 11 88 13 34 41 202 35 211 -6 11 14 125 25 138 5 7 13 36 16 65 4 30 13 60 20 68 33 32 44 62 49 132 3 41 9 76 15 77 11 5 12 149 0 156 -4 3 -11 32 -15 65 -5 47 -11 60 -26 64 -24 6 -27 -6 -33 -116 -3 -61 -10 -90 -33 -134 -16 -31 -33 -55 -39 -55 -5 1 -11 26 -13 56 -2 43 -7 55 -22 59 -15 4 -24 -6 -41 -42 -18 -37 -23 -72 -29 -186 l-7 -140 -55 -110 c-31 -60 -76 -144 -100 -185 -43 -75 -118 -247 -118 -273 0 -8 -7 -27 -15 -44 -8 -16 -16 -38 -18 -49 -2 -10 -7 -26 -10 -34 -9 -22 -25 -90 -49 -210 -23 -115 -67 -230 -67 -175 0 28 18 314 24 381 2 17 8 41 15 54 7 12 9 35 6 51 -3 15 -1 31 3 34 9 5 22 81 26 150 4 77 32 222 46 240 4 6 10 46 13 89 3 43 11 97 17 120 14 51 14 451 -1 504 -5 21 -12 127 -15 237 -4 125 -10 202 -17 206 -6 4 -8 19 -6 33 3 14 2 26 -2 26 -4 0 -10 42 -13 93 -6 105 -34 293 -48 318 -5 10 -9 40 -9 68 0 28 -4 51 -9 51 -20 0 -24 148 -6 243 10 50 21 97 25 102 16 22 19 68 20 254 1 130 -2 196 -9 201 -10 5 -16 58 -34 265 -7 84 -29 230 -36 235 -13 10 -11 88 4 116 8 16 15 48 15 70 0 23 6 59 14 80 13 37 93 162 122 192 8 7 14 19 14 26 0 7 21 43 47 82 38 56 48 81 54 131 5 34 4 76 -1 93 -9 31 -52 80 -70 80 -5 0 -16 10 -24 22 -14 19 -27 23 -93 25 l-78 4 -68 -69z"></path><path id="p10elLVIZk" d="M1117 7873 c-51 -21 -113 -86 -148 -155 -24 -48 -28 -64 -23 -105 4 -26 12 -55 19 -63 7 -8 22 -34 34 -58 12 -24 37 -60 55 -80 87 -98 117 -165 133 -292 3 -25 10 -51 16 -58 19 -24 21 -158 3 -225 -9 -34 -18 -80 -20 -102 -1 -22 -6 -47 -9 -55 -7 -20 -16 -122 -21 -251 -2 -57 -9 -117 -15 -134 -6 -16 -12 -52 -15 -80 -2 -27 -9 -94 -15 -149 -6 -54 -9 -168 -6 -254 4 -152 -5 -275 -25 -310 -17 -32 -50 -168 -50 -210 0 -23 -4 -50 -9 -60 -12 -22 -27 -103 -41 -217 -6 -49 -14 -108 -17 -130 -11 -71 -14 -918 -4 -924 5 -4 15 -71 21 -151 6 -80 15 -161 20 -180 6 -19 10 -61 10 -93 0 -32 6 -90 14 -130 8 -40 19 -119 26 -177 6 -58 15 -123 20 -145 7 -39 8 -38 9 20 0 33 -3 87 -9 120 -19 119 -42 322 -50 435 -4 63 -12 153 -18 200 -11 84 -30 264 -40 370 -2 30 0 125 7 210 6 85 13 224 17 309 3 85 10 179 15 210 5 31 14 88 19 126 10 75 57 306 91 445 17 68 23 135 29 330 4 135 10 263 14 285 3 22 10 101 15 175 13 189 30 350 41 385 5 17 15 74 20 129 12 105 1 214 -39 376 -23 95 -35 118 -106 205 -61 73 -115 174 -115 213 0 37 37 104 89 160 47 50 51 52 100 52 65 0 83 -18 110 -107 12 -37 30 -83 41 -101 18 -30 46 -131 64 -235 4 -22 21 -54 40 -75 18 -20 49 -61 69 -91 45 -65 48 -107 11 -192 -34 -83 -40 -144 -21 -232 8 -40 20 -106 26 -147 17 -119 21 -142 36 -190 42 -139 52 -331 29 -542 -8 -69 19 -192 72 -325 l34 -88 0 -205 c0 -113 5 -223 11 -245 5 -22 12 -134 15 -250 2 -115 9 -232 14 -260 5 -27 14 -86 20 -130 7 -44 16 -84 21 -90 14 -15 30 8 36 54 5 33 3 41 -11 41 -13 0 -16 11 -16 63 0 129 -11 315 -22 384 -6 40 -8 98 -4 128 5 45 3 55 -9 55 -17 0 -17 -3 -19 290 -1 183 -6 216 -42 296 -7 17 -19 54 -25 83 -6 28 -15 53 -20 57 -5 3 -9 20 -9 38 0 17 -5 37 -11 43 -7 7 -9 28 -4 60 13 89 17 393 5 393 -6 0 -10 6 -9 13 2 6 -1 55 -6 107 -5 52 -8 98 -7 103 1 4 -5 7 -14 7 -8 0 -13 4 -9 9 3 5 -3 52 -14 103 -10 51 -23 134 -29 185 -10 86 -9 96 14 163 28 80 38 164 22 195 -6 11 -32 45 -58 75 -72 85 -78 98 -88 195 -6 61 -16 103 -31 128 -12 22 -33 73 -47 115 -40 120 -46 129 -85 151 -43 25 -70 26 -122 4z"></path></g></g></svg>