<svg class="img-fluid" id="outputsvg" xmlns="http://www.w3.org/2000/svg"  width="300" height="686" viewBox="0 0 3000 6860"><g id="l38dQPjJT8ieoYmlVLxQGz0" fill="rgb(106,187,98)" style="transform: none;"><g style="transform: none;"><path id="p9PZaOxpk" d="M960 6669 c0 -5 -4 -7 -10 -4 -5 3 -10 1 -10 -6 0 -7 -3 -10 -6 -6 -12 12 -97 -73 -125 -125 -25 -50 -24 -89 6 -151 22 -47 100 -163 141 -210 17 -20 39 -111 53 -220 7 -49 5 -99 -5 -175 -8 -59 -17 -145 -20 -192 -3 -47 -10 -101 -15 -120 -5 -19 -9 -55 -9 -80 0 -26 -4 -50 -9 -55 -27 -27 -27 -618 -1 -651 7 -7 8 -19 4 -26 -5 -7 -9 -22 -10 -33 -4 -66 -16 -175 -24 -205 -5 -19 -11 -73 -15 -120 -3 -47 -10 -119 -15 -160 -11 -86 -17 -169 -26 -365 -5 -117 -3 -161 15 -270 12 -71 28 -152 35 -180 8 -27 19 -72 25 -100 5 -27 26 -120 46 -205 42 -184 51 -277 35 -385 -6 -44 -11 -87 -11 -95 0 -8 -4 -44 -9 -80 -5 -36 -12 -94 -16 -130 -4 -36 -11 -76 -17 -90 -6 -14 -10 -28 -9 -32 1 -5 -2 -8 -7 -8 -11 0 -36 77 -45 135 -8 51 -23 116 -54 235 -13 52 -30 120 -37 150 -18 77 -38 150 -75 265 -18 55 -47 150 -66 210 -43 142 -113 337 -125 349 -5 6 -9 17 -9 25 0 9 -6 28 -14 42 -7 14 -16 54 -20 90 -11 95 -26 139 -48 139 -14 0 -18 -8 -18 -37 0 -45 -14 -73 -29 -58 -16 16 -51 165 -51 218 0 40 -3 48 -17 45 -24 -4 -42 -100 -42 -218 1 -79 5 -104 25 -147 14 -29 28 -53 33 -53 29 0 71 -208 71 -357 0 -45 4 -84 9 -87 4 -3 11 -42 15 -86 4 -45 22 -140 41 -213 20 -73 42 -161 50 -197 7 -36 16 -72 19 -80 3 -8 10 -44 15 -80 5 -36 19 -118 30 -183 16 -90 19 -142 15 -225 -6 -126 8 -327 28 -395 21 -72 57 -110 148 -156 45 -23 86 -41 92 -41 5 0 50 -20 98 -44 87 -44 184 -76 233 -76 32 0 48 -20 53 -68 4 -37 -6 -70 -41 -132 -8 -14 -15 -32 -15 -41 0 -9 -9 -24 -20 -34 -31 -28 -53 -81 -46 -110 4 -15 0 -38 -10 -56 -12 -25 -14 -37 -5 -55 6 -13 14 -24 19 -24 9 0 10 -40 1 -55 -4 -5 -7 -46 -8 -90 0 -44 -3 -98 -7 -121 -4 -31 -1 -51 15 -83 16 -31 19 -46 11 -60 -5 -11 -10 -22 -10 -24 0 -7 48 -23 105 -37 28 -6 71 -21 97 -32 l47 -21 63 22 c35 12 94 31 131 41 37 10 79 26 93 35 27 17 84 100 84 122 0 7 5 13 12 13 6 0 8 3 5 7 -4 3 1 15 10 26 15 16 18 41 20 139 2 70 7 126 14 134 8 9 8 23 0 46 -5 18 -13 54 -17 80 -5 36 -15 56 -45 87 -23 23 -39 49 -39 63 0 13 -9 31 -20 41 -11 9 -20 28 -20 41 0 14 -4 28 -10 31 -5 3 -10 28 -10 55 0 49 0 49 39 60 21 5 60 13 87 17 27 3 111 32 187 64 175 74 264 133 292 194 44 95 45 105 45 281 0 104 -4 175 -10 179 -12 7 -13 65 -2 65 5 0 12 73 15 162 4 90 13 208 21 263 14 91 43 195 59 212 4 3 7 19 7 35 0 16 7 40 16 53 18 28 38 110 61 249 8 55 19 124 24 151 4 28 12 70 17 95 6 25 13 72 17 105 4 40 15 75 34 106 33 54 42 104 41 230 -1 122 -10 173 -33 177 -15 3 -17 -5 -17 -65 0 -43 -7 -88 -19 -121 -34 -92 -61 -109 -61 -37 0 38 -3 45 -20 45 -13 0 -20 -7 -20 -18 0 -10 -5 -23 -12 -30 -7 -7 -14 -61 -18 -129 -6 -116 -7 -120 -57 -223 -75 -155 -125 -257 -150 -304 -12 -22 -22 -46 -22 -53 -1 -7 -21 -55 -46 -107 -45 -96 -56 -130 -74 -246 -6 -36 -13 -76 -16 -90 -3 -14 -8 -59 -11 -100 -4 -41 -10 -80 -14 -85 -5 -6 -11 -53 -13 -105 -6 -115 -7 -120 -22 -120 -8 0 -17 33 -25 87 -7 49 -16 115 -21 148 -33 219 -31 323 7 451 56 190 65 228 88 419 30 238 36 380 26 595 -5 113 -13 280 -16 372 -6 141 -10 168 -23 171 -14 4 -13 5 1 6 19 1 18 4 -3 114 -17 89 -11 326 10 410 11 41 27 128 37 193 15 102 15 138 6 259 -48 589 -43 686 42 803 40 56 74 112 82 135 4 9 10 17 14 17 20 0 50 83 50 140 0 49 -4 64 -26 90 -39 45 -75 60 -147 60 -63 0 -65 -1 -109 -45 -43 -44 -45 -49 -57 -137 -7 -51 -17 -99 -21 -107 -4 -9 -15 -41 -25 -71 -9 -30 -29 -72 -43 -92 -99 -136 -96 -130 -93 -177 2 -35 12 -59 48 -110 50 -70 59 -115 36 -162 -7 -13 -17 -51 -24 -84 -6 -33 -15 -78 -20 -100 -5 -22 -13 -64 -19 -93 -5 -29 -13 -58 -17 -65 -4 -6 -8 -23 -9 -37 -2 -21 -26 -211 -50 -395 -4 -27 -10 -55 -15 -60 -4 -6 -8 -102 -8 -215 -1 -198 -9 -271 -36 -335 -7 -17 -15 -46 -19 -65 -7 -34 -31 -116 -61 -210 -26 -81 -85 -320 -85 -344 0 -21 -26 -55 -34 -45 -1 2 -13 74 -25 159 -12 85 -27 180 -31 210 -19 119 -43 277 -48 313 -2 20 -8 37 -12 37 -22 0 -36 255 -16 288 3 6 9 39 11 74 3 34 8 78 10 96 2 21 -1 32 -9 32 -6 0 -13 10 -14 23 -1 12 -6 92 -12 177 -6 85 -15 191 -20 235 -5 44 -12 109 -16 145 -4 36 -10 67 -14 70 -7 5 -50 251 -50 284 0 11 22 45 50 77 44 50 50 63 50 102 0 35 -7 53 -35 91 -20 25 -40 46 -45 46 -13 0 -36 58 -45 111 -8 50 -42 163 -79 263 -14 38 -26 71 -26 72 0 2 -6 4 -14 4 -8 0 -16 7 -20 15 -3 8 -12 12 -20 9 -8 -3 -17 -1 -21 5 -8 14 -35 14 -35 0z"></path></g></g></svg>