<svg class="img-fluid" id="outputsvg" xmlns="http://www.w3.org/2000/svg" width="366" height="828" viewBox="0 0 3660 8280"><g id="l4tIqG8Uy6x3lnyA2pMW5Xd" fill="rgb(255,81,62)" style="transform: none;"><g style="transform: none;"><path id="pNGT73DKW" d="M2455 8019 c-35 -34 -68 -73 -72 -87 -5 -15 -10 -63 -12 -107 -2 -44 -7 -85 -12 -91 -5 -7 -12 -28 -14 -48 -5 -40 -61 -150 -104 -205 -43 -56 -45 -66 -46 -226 -1 -82 -5 -159 -8 -170 -42 -147 -59 -201 -67 -216 -22 -41 -50 -147 -50 -191 0 -26 -4 -49 -9 -52 -17 -11 -22 -77 -21 -327 0 -140 -3 -258 -6 -262 -11 -10 -44 -109 -48 -142 -3 -16 -7 -65 -11 -107 -4 -43 -11 -80 -15 -83 -5 -3 -9 -57 -9 -121 -1 -69 -6 -124 -13 -137 -6 -12 -13 -44 -14 -72 -9 -158 -31 -285 -49 -285 -8 0 -14 32 -19 103 -9 121 -12 154 -19 187 -4 22 -13 98 -23 205 -6 64 -25 174 -49 275 -13 58 -26 123 -27 145 -2 22 -8 45 -14 52 -15 16 -26 235 -15 308 12 77 6 359 -8 405 -11 38 -46 235 -56 315 -3 28 -8 70 -12 95 -3 25 -7 88 -7 140 -1 91 -2 96 -30 125 -40 41 -84 143 -96 223 -6 37 -17 73 -24 82 -13 15 -88 185 -100 226 -4 12 -23 37 -43 58 -32 31 -42 36 -85 36 -26 0 -48 -4 -48 -9 0 -5 -10 -13 -22 -16 -30 -9 -82 -59 -121 -115 -61 -87 -36 -218 63 -331 126 -144 143 -185 137 -325 -2 -56 -8 -107 -12 -115 -5 -7 -10 -37 -13 -68 -2 -30 -9 -67 -16 -81 -7 -14 -16 -56 -19 -94 -4 -38 -11 -74 -17 -80 -5 -5 -10 -26 -10 -46 0 -20 -5 -41 -11 -47 -5 -5 -14 -54 -20 -109 -5 -54 -13 -102 -19 -108 -6 -6 -10 -72 -10 -157 0 -91 -4 -149 -10 -151 -16 -5 -18 -170 -2 -175 18 -7 16 -162 -3 -186 -7 -11 -11 -25 -8 -32 2 -8 1 -20 -3 -27 -5 -7 -10 -22 -11 -33 -2 -11 -10 -37 -18 -58 -9 -21 -27 -89 -41 -150 -13 -62 -31 -137 -39 -167 -27 -108 -48 -226 -46 -262 1 -21 -3 -38 -8 -38 -9 0 -14 -40 -26 -203 -3 -42 -10 -89 -15 -103 -13 -33 -13 -341 0 -436 5 -40 12 -100 15 -133 9 -104 17 -155 26 -161 5 -3 9 -18 9 -34 0 -15 7 -63 16 -105 16 -78 12 -191 -6 -180 -5 3 -14 31 -20 63 -13 59 -34 132 -50 167 -5 11 -16 43 -25 70 -25 79 -87 227 -107 257 -10 14 -18 31 -18 36 0 6 -5 23 -12 39 -6 15 -12 60 -14 98 -1 39 -8 88 -15 110 -12 35 -18 40 -44 40 -27 0 -31 -4 -35 -35 -8 -53 -31 -44 -52 20 -10 30 -23 64 -28 75 -5 11 -11 34 -12 50 -3 25 -8 31 -32 33 -16 2 -32 -2 -37 -10 -12 -18 -11 -188 1 -188 5 0 9 -24 9 -52 -1 -59 20 -126 51 -165 18 -23 20 -35 14 -112 -3 -47 -11 -92 -18 -100 -15 -19 -16 -638 0 -672 24 -52 44 -127 53 -204 6 -44 19 -141 29 -215 11 -74 22 -171 25 -215 3 -44 13 -109 22 -145 9 -36 21 -87 26 -115 14 -67 60 -218 70 -230 5 -5 9 -16 9 -24 0 -19 80 -185 91 -189 5 -2 9 -11 9 -21 0 -10 16 -36 35 -58 19 -23 35 -45 35 -50 0 -15 65 -73 81 -73 8 0 23 -6 34 -14 11 -7 74 -33 140 -56 66 -23 134 -48 150 -55 17 -7 73 -30 125 -50 121 -47 158 -84 161 -166 1 -43 -5 -67 -29 -118 -17 -35 -44 -79 -59 -99 -19 -26 -28 -50 -31 -91 -2 -31 -10 -63 -18 -72 -7 -8 -15 -24 -17 -35 -1 -10 -6 -24 -10 -31 -4 -6 5 -26 20 -44 25 -30 27 -38 24 -103 -1 -39 -7 -74 -13 -77 -11 -7 -30 -191 -20 -199 4 -3 20 -29 35 -59 20 -38 25 -57 18 -64 -26 -26 6 -67 52 -67 7 0 24 -7 39 -14 16 -8 49 -18 75 -21 27 -4 60 -11 75 -17 41 -15 131 -1 173 28 22 15 50 24 73 24 44 0 130 38 162 71 45 47 97 139 105 184 10 52 13 217 5 244 -7 24 -4 36 12 56 21 27 23 79 3 105 -7 8 -12 33 -13 55 -3 56 -20 96 -54 125 -26 23 -30 34 -38 115 -10 102 -1 199 22 222 9 8 36 19 60 23 66 13 73 14 78 21 3 3 41 20 85 38 44 18 110 48 148 67 37 19 72 34 78 34 10 0 42 21 126 83 54 40 107 105 135 167 54 118 68 152 68 163 0 7 4 17 9 22 11 11 18 41 31 120 12 74 31 149 41 161 4 5 15 59 24 120 9 60 20 125 25 144 4 19 13 53 19 75 5 22 12 58 16 81 3 22 9 55 14 72 5 17 7 33 4 36 -3 3 -1 12 6 19 6 8 9 22 5 30 -3 9 -1 31 4 49 21 65 24 117 27 408 2 330 -9 587 -31 683 -4 17 -2 27 5 27 14 0 49 72 58 124 4 22 8 95 8 161 l0 120 -30 3 c-26 3 -31 -1 -32 -20 -3 -60 -42 -167 -65 -179 -19 -10 -24 -5 -30 36 -2 13 -12 21 -30 23 -24 3 -27 -1 -32 -30 -16 -113 -20 -179 -13 -210 7 -29 1 -48 -41 -138 -27 -58 -66 -145 -86 -195 -21 -49 -42 -101 -48 -115 -7 -14 -12 -27 -13 -30 -1 -3 -10 -20 -21 -37 -19 -32 -37 -45 -29 -20 2 6 6 28 9 47 12 75 19 100 27 106 5 3 9 18 9 34 0 16 4 31 8 34 4 2 9 22 10 43 2 21 11 67 22 103 10 36 22 83 26 105 13 68 16 514 4 585 -18 108 -20 122 -24 205 -11 242 -63 562 -100 620 -7 11 -17 34 -21 50 -4 17 -11 37 -13 45 -3 8 -7 131 -8 273 -2 180 -7 282 -18 340 -8 45 -17 129 -20 187 -3 58 -9 125 -15 150 -6 25 -15 70 -20 100 -5 30 -20 96 -32 145 -19 77 -22 113 -21 253 l2 163 46 92 c52 106 111 206 138 236 11 12 16 21 11 21 -4 0 0 11 9 25 12 17 16 48 16 109 0 81 -1 86 -31 116 -45 44 -90 60 -176 60 l-75 0 -63 -61z"></path></g></g><g id="l45d4OzYnR7wFM7Z4tK5Epo" fill="rgb(254,102,88)" style="transform: none;"><g style="transform: none;"><path id="p19Ir7fBP3" d="M1200 8060 c-13 -11 -28 -20 -34 -20 -14 0 -80 -69 -116 -120 -53 -76 -23 -217 69 -319 20 -22 54 -65 76 -95 22 -30 41 -53 43 -51 7 6 -32 64 -93 140 -74 93 -96 141 -96 209 0 69 25 121 86 174 58 51 106 68 143 52 34 -14 52 -40 82 -115 13 -33 43 -100 67 -149 24 -49 43 -100 43 -113 0 -14 6 -23 15 -23 18 0 20 -17 4 -22 -19 -6 8 -74 59 -153 l46 -70 7 -140 c4 -77 8 -143 8 -147 1 -5 8 -8 16 -8 12 0 15 13 15 59 0 33 -5 63 -10 66 -6 4 -8 21 -5 38 21 113 16 144 -33 196 -36 38 -80 143 -92 219 -6 37 -17 73 -24 82 -13 15 -88 185 -100 226 -4 12 -25 40 -48 63 -48 47 -90 54 -128 21z"></path><path id="pPXa8K0wu" d="M2455 8019 c-35 -34 -68 -73 -72 -87 -5 -15 -10 -63 -12 -107 -2 -44 -7 -85 -12 -91 -5 -7 -12 -28 -14 -48 -5 -40 -61 -150 -104 -205 -33 -43 -51 -92 -50 -135 l1 -31 7 30 c10 39 44 104 90 174 58 86 80 153 91 273 10 122 20 146 82 205 74 68 154 75 249 21 49 -27 62 -61 57 -146 -3 -64 -7 -74 -67 -167 -69 -107 -141 -241 -141 -262 0 -36 30 -3 68 75 45 90 106 196 132 227 8 9 15 24 16 32 2 8 10 23 19 33 23 25 30 98 15 144 -14 44 -60 92 -107 111 -21 9 -67 15 -110 15 l-75 0 -63 -61z"></path><path id="p1GB1LiTz7" d="M2550 7360 c0 -29 5 -50 11 -50 6 0 3 -7 -5 -16 -30 -29 -21 -214 10 -214 12 0 14 28 14 165 0 140 -2 165 -15 165 -11 0 -15 -12 -15 -50z"></path><path id="ptiWA4KHk" d="M1260 7288 c-1 -2 -2 -29 -4 -60 -3 -31 -8 -63 -12 -69 -4 -7 -9 -38 -10 -68 l-3 -56 14 60 c16 73 30 195 21 195 -3 0 -6 -1 -6 -2z"></path><path id="pd1TgH0JH" d="M2198 7190 c-3 -47 -8 -94 -11 -105 -20 -76 -60 -201 -71 -223 -12 -23 -28 -81 -30 -104 -1 -3 -4 -10 -8 -14 -5 -4 -8 -28 -7 -53 l1 -46 8 41 c5 22 31 109 59 192 55 165 74 259 69 343 -3 48 -4 45 -10 -31z"></path><path id="pynZBwtx2" d="M1631 7061 c-10 -7 -12 -21 -7 -57 14 -102 18 -114 35 -114 13 0 14 -2 2 -9 -12 -8 -12 -20 -2 -78 7 -37 15 -83 18 -100 6 -41 33 -45 33 -5 0 15 -7 59 -15 97 -9 39 -23 116 -33 172 -14 82 -20 101 -31 94z"></path><path id="p18BDLxT2I" d="M2581 7053 c-1 -12 -6 -23 -12 -25 -17 -6 1 -58 20 -59 10 0 11 -2 4 -6 -20 -7 -16 -43 5 -43 13 0 14 -2 3 -9 -11 -7 -11 -18 0 -65 7 -34 17 -56 26 -56 16 0 17 51 2 100 -6 19 -19 69 -29 110 -10 41 -19 65 -19 53z"></path><path id="pmpLW3lnh" d="M1212 7003 c-6 -16 -13 -57 -16 -93 -3 -35 -11 -69 -16 -74 -6 -6 -10 -26 -10 -46 0 -20 -5 -41 -11 -47 -5 -5 -14 -54 -20 -109 -5 -54 -13 -102 -19 -108 -6 -6 -9 -59 -8 -125 1 -64 3 -96 5 -71 9 118 38 311 69 465 44 215 48 235 42 235 -3 0 -10 -12 -16 -27z"></path><path id="p19AuXvaNV" d="M2632 6761 c-17 -10 -4 -101 14 -101 8 0 16 11 20 25 8 32 -17 87 -34 76z"></path><path id="p19n9UanI1" d="M1690 6550 c0 -60 4 -110 9 -110 5 0 16 11 25 25 18 27 23 165 6 165 -5 0 -10 7 -10 15 0 8 -7 15 -15 15 -12 0 -15 -19 -15 -110z"></path><path id="p1GK4AQhXM" d="M2653 6625 c-19 -21 -17 -85 2 -85 11 0 15 12 15 50 0 55 0 55 -17 35z"></path><path id="p8n5EZ6W6" d="M2057 6618 c-4 -10 -9 -26 -12 -35 -3 -9 -6 -135 -5 -278 0 -144 -3 -264 -6 -268 -18 -18 -46 -120 -49 -182 l-4 -70 18 75 c11 41 31 120 46 175 28 105 28 96 9 321 -4 46 -2 109 6 158 12 81 11 141 -3 104z"></path><path id="pDCNv8grk" d="M2654 6438 c3 -35 9 -107 12 -160 6 -81 9 -98 23 -98 14 0 16 17 13 145 -2 119 -6 145 -18 145 -7 0 -14 7 -14 15 0 8 -5 15 -11 15 -8 0 -9 -19 -5 -62z"></path><path id="pYSTp9wH" d="M1699 6413 c-20 -5 -29 -51 -29 -155 0 -63 3 -78 15 -78 8 0 15 -4 15 -10 0 -5 -6 -10 -12 -10 -9 0 -8 -4 2 -10 10 -6 11 -10 3 -10 -8 0 -13 -13 -13 -30 0 -20 5 -30 15 -30 12 0 15 29 17 170 2 94 3 169 3 169 0 -1 -7 -3 -16 -6z"></path><path id="pOPL8tvYq" d="M1087 6158 c-6 -68 0 -118 14 -118 5 0 9 41 9 90 0 103 -14 120 -23 28z"></path><path id="p9rZUmEmg" d="M2670 5980 c0 -118 2 -140 15 -140 13 0 15 22 15 140 0 118 -2 140 -15 140 -13 0 -15 -22 -15 -140z"></path><path id="p7kZcilqh" d="M1690 6056 c0 -38 25 -116 37 -116 7 0 13 -4 13 -10 0 -5 -4 -10 -10 -10 -18 0 -11 -30 8 -31 10 0 12 -3 5 -6 -19 -7 -16 -33 5 -34 10 0 12 -3 5 -6 -19 -7 -16 -33 5 -33 14 0 14 -2 3 -9 -12 -8 -12 -20 -1 -85 10 -53 18 -76 28 -76 20 0 11 79 -23 217 -13 56 -26 121 -27 145 -3 43 -17 68 -37 68 -6 0 -11 -6 -11 -14z"></path><path id="pT8QGkLLP" d="M1110 5923 c0 -27 -7 -56 -15 -66 -7 -11 -11 -25 -8 -32 2 -8 1 -20 -3 -27 -5 -7 -10 -21 -11 -30 -1 -9 -14 -51 -28 -93 -15 -43 -24 -80 -21 -83 9 -8 10 -6 50 121 34 107 59 257 42 257 -3 0 -6 -21 -6 -47z"></path><path id="pLTlwxaI8" d="M2690 5810 c-11 -7 -10 -18 9 -67 12 -32 32 -91 44 -130 15 -49 27 -73 37 -73 13 0 13 -2 1 -9 -12 -8 -12 -22 -1 -100 9 -61 18 -91 27 -91 15 0 19 130 4 146 -5 5 -13 34 -19 64 -17 88 -32 144 -46 165 -11 17 -27 64 -30 87 -2 13 -12 17 -26 8z"></path><path id="pb9t8T3Xy" d="M1971 5748 c0 -20 -5 -39 -10 -42 -5 -3 -9 -58 -9 -121 -1 -70 -6 -124 -13 -137 -7 -13 -14 -45 -15 -73 -2 -27 -5 -81 -8 -120 l-4 -70 13 75 c26 142 60 464 53 500 -4 19 -6 16 -7 -12z"></path><path id="p1CY1bKO4f" d="M1800 5618 c0 -9 -5 -18 -12 -20 -9 -3 -9 -24 0 -89 7 -46 12 -99 12 -116 0 -23 5 -33 15 -33 17 0 20 -17 4 -22 -17 -6 -1 -128 16 -128 7 0 15 -6 18 -12 3 -7 2 23 0 67 -3 44 -9 84 -14 90 -5 5 -9 55 -9 112 0 66 -4 103 -11 103 -6 0 -8 8 -5 18 3 9 1 24 -4 32 -8 13 -10 13 -10 -2z"></path><path id="puVlIIxFg" d="M1011 5542 c-6 -22 -15 -60 -20 -83 -5 -24 -14 -64 -20 -89 -26 -104 -39 -180 -31 -185 5 -3 11 14 15 37 3 24 22 112 42 196 19 85 32 156 29 159 -2 3 -10 -13 -15 -35z"></path><path id="pJACYVnLi" d="M2813 5314 c-25 -26 -10 -170 20 -185 18 -10 19 -8 14 38 -4 26 -8 72 -11 102 -6 62 -7 64 -23 45z"></path><path id="pYbkGAg8F" d="M1896 5135 c-4 -25 -12 -45 -17 -45 -25 0 -41 -31 -35 -65 8 -38 20 -45 34 -17 12 21 36 162 29 168 -2 3 -8 -16 -11 -41z"></path><path id="pXUOF8N7K" d="M927 5163 c-2 -5 0 -21 4 -38 7 -29 7 -29 8 8 1 35 -3 46 -12 30z"></path><path id="pcDD8Puov" d="M2833 5093 c-19 -7 -16 -53 2 -53 10 0 15 10 15 30 0 17 -1 30 -2 29 -2 0 -9 -3 -15 -6z"></path><path id="pU0eMETzL" d="M906 5038 c-6 -55 -9 -156 -6 -173 4 -14 19 78 26 158 4 43 3 67 -4 67 -5 0 -12 -24 -16 -52z"></path><path id="pd1KNIcO8" d="M2830 4973 c0 -77 12 -143 26 -143 8 0 14 -4 14 -10 0 -5 -4 -10 -10 -10 -5 0 -10 -18 -10 -40 0 -29 4 -40 15 -40 22 0 22 215 0 224 -8 3 -15 9 -14 13 4 21 -2 43 -11 43 -5 0 -10 -17 -10 -37z"></path><path id="p10B3JQ2gA" d="M464 4852 c-4 -15 -9 -31 -12 -36 -15 -27 -27 -256 -13 -256 7 0 11 27 12 68 0 37 3 75 7 84 6 15 9 15 26 2 11 -8 14 -14 8 -14 -7 0 -12 -7 -12 -15 0 -8 7 -15 15 -15 12 0 15 18 15 99 0 90 -2 99 -20 104 -15 4 -22 -1 -26 -21z"></path><path id="pl6jNmdUJ" d="M3174 4822 c-1 -37 -8 -87 -19 -150 -8 -44 -44 -122 -55 -122 -6 0 -13 0 -17 0 -5 0 -10 26 -13 57 -8 96 -54 66 -65 -43 l-5 -49 13 35 14 35 18 -38 c10 -22 24 -37 35 -37 24 0 63 68 85 147 10 37 22 60 28 56 15 -9 2 -229 -17 -283 -8 -24 -13 -46 -11 -48 2 -2 -6 -13 -17 -24 -22 -22 -20 -32 6 -22 22 8 54 75 61 128 4 22 11 45 16 51 15 15 11 207 -6 255 -8 23 -15 53 -15 66 0 16 -6 24 -17 24 -14 0 -18 -9 -19 -38z"></path><path id="pygbQ1tki" d="M882 4797 c-7 -32 -11 -115 -10 -212 l2 -160 7 115 c4 63 10 159 14 213 5 53 6 97 4 97 -3 0 -10 -24 -17 -53z"></path><path id="pYiCkq6YF" d="M501 4661 c-19 -12 6 -80 34 -92 14 -5 15 -8 5 -9 -10 -1 -9 -4 5 -10 12 -5 14 -9 6 -9 -11 -1 -10 -5 3 -20 24 -27 44 -16 58 31 12 40 12 40 29 19 9 -11 22 -21 28 -21 6 0 11 -4 11 -10 0 -5 -4 -10 -10 -10 -12 0 -2 -154 12 -192 11 -29 38 -39 38 -14 0 8 -5 27 -12 43 -6 15 -12 57 -13 93 -1 72 -30 178 -54 197 -30 24 -38 14 -39 -43 -1 -97 -29 -99 -58 -4 -19 63 -21 65 -43 51z"></path><path id="p1FRbyM3jE" d="M447 4478 c13 -60 27 -96 50 -130 22 -32 24 -45 19 -80 -5 -32 -4 -40 4 -32 6 6 14 29 17 51 4 32 0 45 -20 68 -32 39 -57 89 -57 114 0 11 -4 22 -9 25 -5 4 -7 -4 -4 -16z"></path><path id="phdnjhGSH" d="M2988 4436 c-2 -19 1 -52 8 -73 10 -35 11 -32 6 32 -5 81 -8 89 -14 41z"></path><path id="pu7XiWlf1" d="M2850 4416 c0 -13 6 -27 13 -29 7 -4 6 -6 -4 -6 -23 -1 -47 -130 -27 -142 10 -7 9 -9 -4 -9 -10 0 -18 -6 -18 -12 0 -7 -3 -23 -6 -35 -5 -17 -2 -23 9 -23 23 0 51 99 64 233 4 38 2 47 -11 47 -10 0 -16 -9 -16 -24z"></path><path id="phtludCoO" d="M882 4360 c0 -19 3 -60 8 -90 6 -48 7 -50 8 -15 0 22 -3 63 -8 90 -6 40 -7 43 -8 15z"></path><path id="psv70maNW" d="M2953 4232 c-23 -48 -60 -132 -83 -187 -23 -55 -46 -111 -52 -125 -7 -14 -12 -27 -13 -30 -4 -14 -41 -70 -46 -70 -3 0 -4 11 -1 25 3 18 0 25 -11 25 -10 0 -18 -19 -27 -67 -10 -60 -24 -124 -76 -363 -15 -70 -18 -109 -8 -134 8 -22 24 -20 24 2 0 10 7 45 16 77 8 33 19 80 24 105 25 142 110 389 185 540 32 65 118 281 113 286 -3 2 -23 -36 -45 -84z"></path><path id="pj5Ym2vlR" d="M710 4300 c-12 -8 -12 -10 5 -11 11 0 15 -3 8 -5 -17 -7 16 -74 36 -74 13 0 13 -2 2 -9 -11 -7 -11 -14 0 -46 8 -21 22 -40 32 -43 13 -3 15 -7 7 -12 -16 -10 27 -130 46 -130 8 0 14 6 14 13 -1 16 -35 119 -48 143 -6 10 -21 47 -34 81 -29 80 -48 106 -68 93z"></path><path id="p15aykCGXi" d="M3134 4238 c3 -35 9 -107 12 -160 5 -73 10 -98 20 -98 11 0 14 27 13 136 0 137 -10 184 -37 184 -12 0 -13 -12 -8 -62z"></path><path id="pm32H0kng" d="M513 4185 c0 -22 2 -30 4 -17 2 12 2 30 0 40 -3 9 -5 -1 -4 -23z"></path><path id="p11cfgg03J" d="M899 4201 c-7 -18 13 -137 25 -148 5 -5 5 9 1 32 -5 22 -11 60 -14 85 -4 25 -9 39 -12 31z"></path><path id="p14Ew7ptTM" d="M494 4125 c-15 -32 -12 -651 4 -667 6 -6 12 -22 12 -34 0 -13 5 -26 11 -30 7 -4 9 0 5 12 -33 110 -47 437 -25 601 6 44 9 93 7 109 -4 26 -5 27 -14 9z"></path><path id="pImYMRHoX" d="M2790 4120 c0 -11 7 -20 15 -20 8 0 15 9 15 20 0 11 -7 20 -15 20 -8 0 -15 -9 -15 -20z"></path><path id="pXoURiPP5" d="M2780 4078 c0 -7 -3 -23 -6 -35 -5 -17 -2 -23 9 -23 13 0 22 16 32 58 2 6 -5 12 -16 12 -10 0 -19 -6 -19 -12z"></path><path id="pagUZgba3" d="M2776 3994 c-17 -12 -17 -14 -4 -14 9 0 20 5 23 11 11 17 2 18 -19 3z"></path><path id="p1HB6jfUkO" d="M853 3962 c-18 -11 15 -112 36 -112 13 0 13 -2 3 -9 -18 -11 -5 -61 15 -61 18 0 14 26 -14 120 -19 64 -24 72 -40 62z"></path><path id="p6nV3dZRe" d="M3173 3893 c-10 -4 -13 -58 -13 -229 0 -191 2 -224 15 -224 11 0 15 12 15 48 0 26 1 109 3 185 1 75 -2 137 -7 137 -5 0 -4 6 1 13 13 17 1 75 -14 70z"></path><path id="pgnkbJX7s" d="M954 3785 c-9 -51 -12 -57 -20 -38 -6 14 -14 19 -21 15 -16 -10 16 -132 34 -132 15 0 18 -27 3 -32 -21 -7 55 -298 81 -307 19 -6 7 110 -44 419 l-23 135 -10 -60z"></path><path id="p1BUzPFNh4" d="M3168 3423 c-14 -3 -18 -15 -18 -46 0 -23 -4 -60 -9 -82 -5 -22 -12 -66 -16 -98 -6 -54 -5 -58 12 -55 13 3 17 11 15 32 -2 15 1 33 6 39 6 7 13 50 17 97 3 47 9 93 11 103 3 9 4 16 2 16 -2 -1 -11 -3 -20 -6z"></path><path id="pAf6DTJmX" d="M546 3270 c3 -41 9 -86 14 -100 5 -14 11 -38 14 -55 2 -16 2 4 -1 46 -3 41 -11 100 -19 130 l-13 54 5 -75z"></path><path id="ptSHNTIFN" d="M3101 3067 c-13 -78 -14 -97 -2 -97 14 0 20 13 27 56 3 22 9 44 13 49 12 18 6 50 -10 53 -13 2 -19 -10 -28 -61z"></path><path id="p10zNedEjq" d="M587 3000 c3 -41 7 -77 9 -79 7 -8 3 74 -6 114 -6 30 -7 21 -3 -35z"></path><path id="pgjSTKtST" d="M3072 2909 c-14 -61 -15 -69 -2 -69 14 0 26 29 34 78 9 63 -17 56 -32 -9z"></path><path id="pnUTlYS4E" d="M602 2880 c0 -19 2 -27 5 -17 2 9 2 25 0 35 -3 9 -5 1 -5 -18z"></path><path id="pqVLjEBoz" d="M606 2781 c5 -51 31 -161 40 -170 3 -3 4 3 1 14 -6 19 -27 167 -27 186 0 5 -4 9 -9 9 -5 0 -7 -18 -5 -39z"></path><path id="p123Dteorb" d="M3046 2789 c-9 -47 -7 -59 8 -59 12 0 26 40 26 76 0 28 -28 13 -34 -17z"></path><path id="pNADEXH9V" d="M3049 2713 c-10 -2 -21 -29 -32 -76 -21 -87 -21 -87 -2 -87 8 0 15 8 15 18 0 10 5 23 11 29 6 6 14 36 18 67 4 31 7 55 7 55 -1 -1 -8 -3 -17 -6z"></path><path id="p0BKOGkiz" d="M660 2531 c0 -20 52 -185 61 -195 5 -6 9 -16 9 -24 0 -20 83 -192 92 -192 5 0 -8 30 -27 68 -19 37 -58 132 -85 212 -28 80 -50 139 -50 131z"></path><path id="p18mrzfo5i" d="M2965 2428 c-27 -114 -94 -286 -138 -355 -22 -35 -54 -66 -129 -130 -53 -44 -376 -189 -483 -217 -32 -8 -62 -21 -66 -28 -13 -20 10 -22 31 -3 11 10 39 21 63 26 65 12 72 14 77 20 3 3 41 20 85 38 44 18 110 48 148 67 37 19 72 34 78 34 10 0 42 21 126 83 54 40 107 105 135 167 54 118 68 152 68 163 0 7 4 17 9 22 10 11 18 40 31 120 5 28 12 62 15 78 6 20 4 27 -8 27 -10 0 -22 -32 -42 -112z"></path><path id="po3QSWGs6" d="M830 2097 c0 -7 16 -32 35 -54 19 -23 35 -45 35 -50 0 -16 68 -75 81 -71 7 2 0 13 -18 26 -17 12 -52 54 -77 92 -47 71 -56 80 -56 57z"></path><path id="p2llu0J9V" d="M1537 1695 c14 -25 53 -61 53 -48 0 11 -19 34 -44 53 -18 14 -18 14 -9 -5z"></path><path id="ptOR9L1ws" d="M2126 1633 c-3 -21 -6 -57 -6 -80 0 -34 4 -43 18 -44 10 0 12 -3 5 -6 -18 -7 -16 -53 1 -53 11 0 14 22 15 110 0 86 -3 110 -13 110 -8 0 -16 -16 -20 -37z"></path><path id="pTUfPvLUr" d="M1593 1580 c0 -25 2 -35 4 -22 2 12 2 32 0 45 -2 12 -4 2 -4 -23z"></path><path id="p4nqjtRUD" d="M1565 1468 c-10 -24 -34 -65 -53 -92 -18 -26 -35 -65 -38 -85 -4 -36 -4 -36 6 -5 5 16 21 41 34 53 14 13 37 55 52 93 29 76 28 103 -1 36z"></path><path id="p1DsQGAvow" d="M2161 1408 c0 -9 -7 -19 -13 -21 -7 -3 -4 -6 7 -6 15 -1 17 -4 7 -10 -18 -11 11 -41 41 -41 17 0 19 -3 8 -9 -16 -10 -6 -31 15 -31 8 0 14 -4 14 -10 0 -5 -4 -10 -10 -10 -5 0 -10 -4 -10 -10 0 -5 7 -10 15 -10 8 0 15 6 15 14 0 28 -30 84 -54 99 -13 9 -27 27 -29 39 -2 13 -5 16 -6 6z"></path><path id="pcs9EVLex" d="M1453 1198 c-7 -8 -14 -23 -16 -34 -1 -10 -6 -24 -10 -31 -4 -7 5 -26 21 -45 21 -23 28 -42 26 -63 -3 -30 -3 -30 9 4 10 31 9 36 -17 58 -28 24 -28 24 -11 56 20 38 18 80 -2 55z"></path><path id="p1AwXHEVtX" d="M2231 1178 c1 -7 4 -24 8 -38 4 -14 4 -36 -1 -49 -11 -32 -3 -38 22 -16 23 20 28 83 8 103 -16 16 -38 15 -37 0z"></path><path id="pgGUaUgf4" d="M2227 895 c-6 -99 -8 -109 -52 -193 -57 -111 -82 -135 -170 -160 -66 -19 -67 -20 -30 -21 46 -1 132 36 165 70 45 47 97 139 105 184 2 11 6 66 9 123 5 81 3 102 -8 102 -10 0 -15 -27 -19 -105z"></path><path id="p1AgsBAmv5" d="M1446 868 c-13 -110 -15 -158 -7 -158 5 0 11 -10 14 -22 4 -13 13 -32 22 -43 15 -19 15 -18 2 10 -12 23 -14 56 -10 143 4 77 2 112 -5 112 -6 0 -13 -19 -16 -42z"></path><path id="p12wYH0pkw" d="M1488 586 c-10 -7 -18 -18 -18 -24 0 -13 52 -42 75 -42 10 0 29 -6 43 -14 110 -55 244 -60 320 -10 39 25 13 28 -47 4 -62 -24 -78 -25 -97 -5 -9 8 -27 15 -42 16 -149 4 -208 21 -214 62 -3 23 -5 24 -20 13z"></path></g></g></svg>